<?xml version="1.0" standalone="no"?>
<svg viewBox="0 0 200 200" xmlns="http://www.w3.org/2000/svg">
  <path fill="#229FFF" d="M38.5,-65.1C48.8,-60.7,55.5,-48.3,59.3,-36.1C63,-23.9,63.8,-12,63.3,-0.3C62.7,11.3,60.8,22.7,57.3,35.2C53.7,47.6,48.4,61.2,38.6,67.7C28.8,74.2,14.4,73.5,0,73.6C-14.5,73.7,-29,74.4,-38.6,67.9C-48.3,61.3,-53.1,47.4,-61.4,34.9C-69.7,22.3,-81.4,11.2,-85.7,-2.5C-90.1,-16.2,-87,-32.3,-78.6,-44.6C-70.1,-56.8,-56.2,-65.1,-42.2,-67.4C-28.2,-69.7,-14.1,-66.1,0,-66.1C14.1,-66,28.1,-69.5,38.5,-65.1Z" transform="translate(100 100)" />
</svg>
